<svg width="512" height="512" viewBox="0 0 512 512" xmlns="http://www.w3.org/2000/svg">
  <rect width="512" height="512" fill="#ffffff"/>
  <g fill="#000000">
    <path d="M228 154C138 132 76 130 76 130V398C76 398 146 402 228 442V154Z"/>
    <path d="M284 154C374 132 436 130 436 130V398C436 398 366 402 284 442V154Z"/>
    <path d="M242 104C170 78 114 76 114 76V120C114 120 174 128 242 172V104Z"/>
    <path d="M270 104C342 78 398 76 398 76V120C398 120 338 128 270 172V104Z"/>
    <path d="M242 184C242 166.327 256.327 152 274 152V460C256.327 460 242 445.673 242 428V184Z"/>
  </g>
</svg>
